<?xml version="1.0" encoding="utf-8"?>
<!-- Generator: Adobe Illustrator 26.5.0, SVG Export Plug-In . SVG Version: 6.00 Build 0)  -->
<svg version="1.1" id="Calque_2" xmlns="http://www.w3.org/2000/svg" xmlns:xlink="http://www.w3.org/1999/xlink" x="0px" y="0px"
	 viewBox="0 0 792 612" style="enable-background:new 0 0 792 612;" xml:space="preserve">
<style type="text/css">
	.st0{fill:none;stroke:#000000;stroke-miterlimit:10;}
</style>
<path d="M155.01,276.99c9.24-4.1,18.42-7.72,28.49-11.18c9.99-3.42,19.17-6.07,27.27-8.13c-1.85,4.48-3.67,9.22-5.42,14.19
	c-2.56,7.29-4.69,14.28-6.45,20.9c-3.05-8.33-7.46-11.35-9.96-12.58c-14.6-7.17-40.35,9.42-44.23,29.1
	c-0.42,2.14-2.73,13.83,4.9,20.9c5.51,5.11,14.69,6.41,21.16,2.58c4.17-2.47,9.22-8.25,7.23-12.39c-1.54-3.2-7.06-4.9-13.16-3.1
	c4.65-2.78,10.28-5.71,16.87-8.32c5.46-2.17,10.57-3.72,15.13-4.84c-2,7.26-3.85,15.93-4.9,25.81c-0.93,8.72-1.05,16.63-0.77,23.48
	c-5.45-1.99-13-4.23-22.2-5.45c-15.68-2.08-27.79-0.07-31.21,0.55c-16.82,3.07-29.3,10.03-36.65,14.97
	c1.97-1.69,4.73-4.25,7.65-7.68c13.93-16.38,22.13-41.68,14.57-48.26c-6.52-5.68-25.18,2.05-25.42,1.57
	c-0.01-0.01,0.03-0.04,0.1-0.09C113.04,298.61,132.04,287.18,155.01,276.99z"/>
<path d="M209.9,339c4.09-0.92,10.53-0.15,13.13,5c2.11,4.17,0.99,9.61-2.9,13.06c4.57,0.66,9.47,1.62,14.61,3
	c15.3,4.09,27.57,10.45,36.67,16.32c-6.7-5.55-14.74-13.41-22.16-24.09c-4.07-5.86-7.22-11.52-9.67-16.61
	c-4.76-1.31-11.38-3.99-15.87-9.97c-11.65-15.49-2.22-44.02,12-59.61c0,0,17.32-18.51,48.86-29.33c0.01,0,0.03-0.01,0.03-0.01
	c-0.01-0.06-18.82,3.97-37.45,9.82c-6.84,2.15-15.89,5.24-26.41,9.58c-8.16,13.9-18.67,36.64-20.04,65.77
	c-0.4,8.45,0.03,16.23,0.89,23.19C202.19,344.15,204.84,340.14,209.9,339z"/>
<path d="M471.81,387.13c5.34-5.52,12.34-14.03,17.81-25.81c6.24-13.43,11.72-33.79,6.4-36.9c-1.19-0.7-3.23-0.7-6.92,1.54
	c1.49-6.02,3.62-18.24-0.52-32.52c-2.42-8.35-6.19-14.67-9.2-18.86c7.06-4.39,16.18-9.12,27.3-12.75
	c22.12-7.24,41.65-6.77,53.81-5.42c-5.07,0.52-16.35,2.38-27.1,10.84c-6.85,5.39-10.91,11.44-13.16,15.48
	c-1.67-5.82-6.25-9.37-10.06-8.9c-4.86,0.59-6.38,9.45-6.97,12.77c-0.59,3.37-2.85,16.18,5.26,21.55
	c5.09,3.37,11.37,1.88,13.42,1.29c-9.5,15.83-11.11,27.39-11.35,33.29c-0.19,4.42,0.3,7.67,2.58,9.55
	c3.31,2.74,10.51,2.67,12.9-1.81c1.45-2.7,0.82-6.42-1.52-9.29c7.02,0.18,15.22,0.94,24.23,2.84c15.33,3.23,27.65,8.61,36.55,13.42
	c-18.57,0.09-43.86,2.36-72.16,11.61C496.83,374.38,483.03,380.87,471.81,387.13z"/>
<path d="M580.32,280.19c3.08,6.42,3.98,12.28,4.26,16.06c-1.8-2.01-9.51-10.17-21.65-10.74c-3.04-0.14-12.41-0.55-17.29,5.42
	c-7.41,9.05,0.04,27.25,10.84,34.58c2.18,1.48,7.1,4.75,12.13,3.1c2.37-0.78,3.95-2.38,4.85-3.5c2.32,2.62,4.88,5.92,7.28,9.96
	c3.68,6.18,5.75,12,6.97,16.52c-7.08-4.19-17.46-9.31-30.77-12.65c-13.5-3.39-25.22-3.74-33.5-3.36
	c1.21-1.01,10.28-8.89,10.08-21.93c-0.22-13.85-10.71-21.6-11.84-22.4c2.08-3.77,5.05-8.23,9.25-12.7
	c8.41-8.93,17.65-13.47,23.48-15.74c-2.81,3.37-4.41,7.25-3.1,9.55c2.07,3.62,11.45,3.51,14.77-1.45c1.73-2.58,1.28-5.67,1.03-6.89
	C570.42,266.53,576.24,271.69,580.32,280.19z"/>
<path d="M572.85,256.9c5.05,1.44,10.68,3.35,16.67,5.9c5.91,2.52,11.12,5.2,15.61,7.81c-1.44,0.14-5.71,0.76-7.87,4
	c-3.47,5.19,0.15,14.62,6.97,17.23c4.03,1.54,10.37,1.15,13.55-3.68c2.68-4.07,2.13-9.81-1.55-13.68c7.97,3.36,17.3,8.07,27.1,14.71
	c13.76,9.33,23.89,19.39,30.97,27.61c-10.03-6.32-18.97-10.28-25.55-12.77c-17.89-6.78-22.19-4.19-23.61-3.1
	c-3.21,2.46-4.44,6.98-3.87,10.45c1.26,7.72,11.57,11.13,17.16,11.87c3.81,0.5,7.01-0.02,9.03-0.52
	c5.4,5.42,10.96,11.43,16.52,18.06c10.84,12.95,19.47,25.62,26.32,37.16c-7.89-9.07-15.56-15.52-21.42-19.87
	c-6.06-4.5-14.35-10.11-26.58-13.68c-5.43-1.58-10.13-2.3-13.48-2.65c0.09-1.41,0.13-5.34-2.52-8.32
	c-4.67-5.26-15.04-4.57-17.03-0.39c-1.85,3.87,3.85,10.01,4.26,10.45c-2.46,0.49-5.95,1.49-9.68,3.68
	c-5.29,3.11-8.45,7.09-10.06,9.48c2.83-17.92,4.8-49.26-10.32-81.42C580.21,268.37,576.58,262.27,572.85,256.9z"/>
<path d="M530.44,390.67"/>
<path d="M334.55,335.9c13.15-5.42,21.6-18.43,21.16-32.52c-0.42-13.63-9.09-25.78-21.94-30.71c0.26,3.56-1.26,6.57-3.61,7.48
	c-2.84,1.11-5.82-1.25-6.19-1.55c-4.59-3.73-3.68-11.83-3.1-16.52c1.84-14.78,10.07-27.71,17.29-36.6
	c-11.23,9.5-27.55,26.03-38.97,51.05c-4.84,10.6-7.81,20.57-9.66,29.14c2.55-1.52,6.74-3.38,10.7-2.04
	c9.1,3.08,8.36,20.93,8.26,23.48c-0.22,5.5-0.63,15.87-8,19.87c-3.97,2.15-8.29,1.55-10.58,1.03c3.69,9.5,11.36,25.55,26.84,40.52
	c11.92,11.53,24.09,18.18,32.52,21.94c-5.7-4.95-21.56-19.86-26.58-41.81c-2.56-11.19-1.41-20.31-0.77-25.03
	c0.61-4.5,1.99-14.73,5.68-15.23C330.26,328.06,333.09,332.99,334.55,335.9z M333.87,310.55c-2.06-0.08-3.77-1.6-4.39-3.35
	c-0.93-2.63,0.54-5.84,3-6.61c2.95-0.92,6.63,1.91,6.52,5.16C338.91,308.25,336.57,310.65,333.87,310.55z"/>
<polyline class="st0" points="0,0 0,0 0,0 "/>
<path d="M288.1,242.48c-8.15,3.83-19.12,10.08-30.19,20.13c-13.08,11.87-21.05,24.27-25.68,32.9c2.75-1.46,13.01-6.5,21.48-2.32
	c14.98,7.38,14.14,38.49,3.87,44.13c-2,1.1-4.72,1.43-8.45,0.39c3.8,6.64,8.68,13.97,14.97,21.42
	c14.38,17.05,30.12,27.66,41.81,34.06c-7.21-7.48-22.72-25.67-27.07-53.16c-2.94-18.56,0.5-33.19,2.04-39.48
	c7.17-29.23,26.52-52.2,38.19-66.06c0,0,0.01-0.01,0.01-0.01c0,0-29.24,28.89-45.79,39.56c-1.99,1.28-5.7,3.53-7.57,2.21
	c-1.69-1.19-1.08-4.75-0.84-6.17C266.65,259.77,281.63,247.46,288.1,242.48z"/>
<path d="M520.59,379.14"/>
<path d="M498.13,230.48c26.41,5.52,48.15,14.01,64.56,21.88c-8-1.77-19.23-3.33-32.56-2.27c-9.89,0.79-18.28,2.82-24.77,4.9
	c-0.2-1.01-2.2-10.72-8.77-12.65c-6.93-2.03-13.89,6.07-17,9.68c-13.07,15.19-15.01,39.95-8.32,43.29c1.58,0.79,4.29,0.72,9.29-2.9
	c-2.21,5.95-4.88,14.32-6.77,24.58c-2.22,12.02-5.07,27.42,0.77,30.77c1.53,0.88,5.03,1.72,13-3.65
	c-4.78,9.8-11.56,21.57-21.13,33.84c-10.77,13.8-21.84,24.1-31.03,31.48c10.45-18.5,15.56-34.89,18.26-46.58
	c0.82-3.55,11.1-49.2-0.9-54.58c-2.33-1.04-4.97-0.34-6.97,0.52c4.61-8.91,16.05-34.05,8.52-63.23c-2.17-8.43-5.48-15.45-8.81-21.03
	C460.43,224.83,478.31,226.34,498.13,230.48z"/>
<path d="M394.42,366.35"/>
<path d="M459.19,463.13"/>
<path d="M195.97,371.77"/>
<path d="M497.19,400.23"/>
<path class="st0" d="M632.9,555.82"/>
<path d="M620.23,490.22"/>
<path class="st0" d="M537.92,582.73"/>
<path d="M525.26,517.12"/>
<path class="st0" d="M733.99,575.92"/>
<path d="M761.59,450.19"/>
<path class="st0" d="M641.67,643.66"/>
<path d="M614.08,517.93"/>
<path d="M401.65,271.65c12.82-6.83,13.8-26.58,14.45-44.13c0.59-16.02-0.66-41.12-11.65-71.61c9.68,14.98,20.73,35.36,29.16,60.9
	c6,18.2,9.31,34.86,11.13,48.9c-15.64,5.94-26.23,20.51-26.78,36.73c-0.6,17.99,11.27,34.65,29.1,40.3
	c-3.51,15.7-8.53,33.5-15.77,52.65c-6.6,17.43-13.84,32.77-20.9,45.94c7.56-30.88,6.67-55.18,4.81-70.58
	c-2.99-24.71-9.12-31.55-14.84-34.32c-5.07-2.46-11.49-2.57-16.65-0.26c-11.75,5.26-14.16,21.93-15.87,34.97
	c-1.93,14.65-2.82,39.42,7.71,70.97c-8.28-12.21-17.54-28.05-25.55-47.48c-7.51-18.21-12-34.91-14.77-48.74
	c18.63-6.41,30.8-24.16,29.9-43.13c-0.81-17.07-12.06-32.28-28.53-38.49c2.24-13.98,5.82-30.06,11.59-47.44
	c7.99-24.07,17.93-43.92,27.1-59.35c-10.89,34.76-10.56,61.94-8.87,78.45c2.65,25.99,9.39,32.89,14.84,35.74
	C387.35,274.83,395.48,274.93,401.65,271.65z"/>
<path d="M599.06,399.9"/>
</svg>
