<svg width="1024" height="1024" viewBox="0 0 1024 1024" fill="none"
  xmlns="http://www.w3.org/2000/svg">
  <circle cx="512" cy="512" r="512" fill="#00875A"/>
  <path d="M463.078 188.775C463.888 182.74 469.808 176.865 475.868 176.065L546.338 176C552.708 176.525 559.408 182.33 560.058 188.775C561.973 207.78 558.713 229.915 560.043 249.29C560.118 250.38 560.388 251.415 560.618 252.465C565.678 252.69 570.768 252.365 575.833 252.5C635.253 254.09 695.168 273.58 723.808 329.51C735.898 353.12 738.628 376.915 737.568 403.29C736.923 419.405 737.108 432.88 717.793 434.015C701.263 434.985 676.718 435.205 660.308 434.015C651.273 433.36 644.133 427.955 644.013 418.265C643.908 409.565 645.473 402.05 644.488 392.835C639.968 350.525 603.823 339.01 566.333 337.5C512.863 335.35 457.513 338.64 403.958 338.145C395.838 339.675 391.903 345.745 391.563 353.75C393.123 385.715 389.558 419.545 391.563 451.29C392.048 458.95 394.673 465.45 402.558 467.79C457.913 470.415 513.933 466.56 569.293 469.04C610.548 470.89 648.878 483.995 683.208 506.615C732.103 538.835 749.493 576.82 747.068 635.795C743.653 718.925 683.423 767.645 604.238 776.45C589.628 778.075 574.763 777.71 560.063 778.02V835.27C560.063 839.725 552.053 847.625 547.263 847.465C525.428 847.285 501.493 849.545 479.803 848.04C470.523 847.395 463.963 843.075 463.083 833.26C461.688 817.69 463.978 800.085 463.098 784.245C462.983 782.215 462.208 780.175 462.578 778.015H324.343C311.658 778.015 296.888 761.42 297.103 748.76V614.775C297.558 607.77 303.988 602.09 310.828 601.5C332.048 599.665 355.858 602.925 377.358 601.5C386.083 602.675 390.883 608.69 391.583 617.275C393.098 635.895 390.453 656.47 391.568 675.29C392.083 683.97 394.403 689.335 403.058 692.3C458.353 693.985 513.938 692.525 569.338 693.04C594.828 691.57 622.428 687.595 639.818 667.025C656.478 647.32 657.073 603.465 641.978 582.855C625.683 560.605 596.298 555.565 570.343 554L328.328 554.04C313.433 553.575 300.848 543.175 297.733 528.64C296.278 446.285 297.508 363.71 297.113 281.275C297.778 266.475 312.523 252.015 327.353 252.015H463.088V188.765L463.078 188.775Z" fill="white"/>
</svg>
